<?xml version="1.0" standalone="no"?>
<!DOCTYPE svg PUBLIC "-//W3C//DTD SVG 20010904//EN"
 "http://www.w3.org/TR/2001/REC-SVG-20010904/DTD/svg10.dtd">
<svg version="1.0" xmlns="http://www.w3.org/2000/svg"
 width="512.000000pt" height="512.000000pt" viewBox="0 0 512.000000 512.000000"
 preserveAspectRatio="xMidYMid meet">
<metadata>
Created by potrace 1.14, written by Peter Selinger 2001-2017
</metadata>
<g transform="translate(0.000000,512.000000) scale(0.100000,-0.100000)"
fill="#000000" stroke="none">
<path d="M2260 4934 c-90 -14 -222 -49 -268 -73 -9 -5 -30 -15 -47 -23 -80
-36 -179 -122 -191 -165 -4 -14 -19 -26 -42 -33 -86 -27 -149 -66 -215 -134
-38 -38 -77 -86 -88 -105 -10 -20 -23 -43 -29 -51 -24 -39 -60 -133 -78 -210
-36 -148 -42 -199 -42 -369 0 -166 14 -271 55 -421 8 -30 12 -62 9 -72 -3 -10
1 -53 10 -96 8 -42 22 -126 31 -185 8 -59 19 -115 24 -125 54 -103 61 -128 50
-186 -5 -31 -7 -61 -3 -67 4 -7 -57 -10 -202 -9 -115 2 -216 -1 -225 -4 -46
-20 -56 -115 -40 -391 6 -110 16 -281 21 -379 5 -99 13 -200 16 -226 6 -44 4
-49 -31 -86 -134 -141 -203 -265 -271 -484 -48 -156 -55 -191 -52 -251 l3 -64
1865 -3 c1026 -1 1880 0 1898 3 34 6 34 7 29 53 -5 49 -47 208 -61 230 -4 7
-16 41 -26 76 -9 34 -22 71 -28 82 -6 10 -26 51 -44 89 -45 97 -66 128 -153
235 -33 40 -37 49 -31 86 3 24 10 136 16 251 6 114 15 232 20 262 6 30 13 136
16 236 7 176 6 183 -16 228 -13 25 -30 49 -39 53 -9 3 -114 6 -233 5 l-218 -2
0 87 c0 59 4 93 13 103 31 36 67 204 94 431 3 25 20 77 38 115 19 41 37 103
44 150 7 44 19 120 27 169 18 113 18 203 0 280 -8 34 -20 95 -27 136 -12 76
-61 212 -85 241 -8 8 -14 19 -14 24 0 9 -76 114 -130 179 -54 65 -197 192
-235 210 -19 10 -35 20 -35 24 0 18 -209 103 -298 122 -24 6 -48 12 -53 15 -5
4 -59 15 -120 26 -91 15 -155 19 -348 18 -130 -1 -247 -3 -261 -5z m-209 -959
c8 -8 24 -15 35 -15 11 0 24 -4 30 -10 35 -35 257 -93 514 -134 80 -13 158
-29 173 -35 16 -6 43 -11 62 -11 19 0 46 -5 62 -11 54 -21 208 -49 238 -44 26
5 37 -1 82 -45 29 -27 51 -50 48 -50 -2 0 -29 11 -58 24 -56 25 -192 56 -244
56 -40 0 -95 -19 -110 -38 -18 -22 -16 -39 7 -62 17 -17 33 -20 109 -20 71 0
107 -6 185 -31 53 -16 109 -29 124 -27 25 3 27 6 26 46 -1 61 11 57 71 -23 33
-45 57 -83 83 -135 14 -30 17 -60 14 -195 -2 -146 -12 -233 -42 -355 -6 -25
-16 -67 -21 -95 -6 -27 -14 -52 -19 -55 -4 -3 -10 -15 -14 -27 -6 -19 -3 -23
21 -29 51 -11 57 -14 46 -25 -11 -11 -793 -22 -793 -10 0 4 11 17 25 29 43 38
24 109 -21 78 -10 -7 -43 -19 -73 -26 -63 -15 -147 -1 -192 32 -34 25 -49 17
-49 -28 0 -24 7 -41 25 -56 13 -11 22 -25 19 -30 -4 -5 -124 -8 -282 -7 -354
2 -484 8 -479 23 2 6 12 13 23 14 33 7 35 17 15 73 -57 152 -101 333 -101 414
0 30 -4 56 -10 60 -6 4 -6 15 0 31 12 30 13 78 3 88 -10 10 -12 76 -2 82 5 2
11 31 15 63 4 41 20 83 54 147 50 93 48 92 115 79 21 -4 40 1 64 15 32 21 33
23 27 71 -7 48 0 59 21 38 6 -6 23 -9 39 -7 l29 3 -3 87 c-2 48 -1 92 3 99 10
15 84 3 106 -16z m591 -2150 c-7 -39 -54 -70 -75 -49 -7 7 12 44 33 61 22 18
46 11 42 -12z m54 -85 c29 -11 30 -29 4 -72 -27 -44 -25 -56 11 -111 l31 -47
-20 -27 c-42 -59 -56 -66 -119 -59 -32 4 -71 3 -88 -2 -69 -21 -142 77 -144
191 -1 67 30 120 75 128 42 8 228 7 250 -1z"/>
<path d="M1946 3683 c-80 -14 -192 -60 -215 -87 -20 -24 -9 -59 22 -70 23 -8
46 -4 120 22 78 27 107 32 183 32 104 0 134 13 134 60 0 59 -80 73 -244 43z"/>
<path d="M1940 3456 c-63 -17 -93 -31 -141 -65 -40 -30 -98 -97 -99 -115 0 -5
-6 -17 -14 -25 -8 -9 -17 -31 -21 -48 -6 -29 -4 -33 14 -33 12 0 21 4 21 8 0
16 65 107 93 132 16 14 36 33 45 43 18 18 42 23 42 8 0 -6 -4 -12 -9 -15 -14
-9 -61 -114 -61 -137 0 -25 36 -107 59 -133 66 -76 178 -94 263 -40 26 16 48
32 48 37 0 4 11 25 25 47 29 46 34 124 10 156 -16 21 -20 54 -6 54 5 0 15 -10
24 -22 8 -13 24 -34 36 -47 11 -13 21 -32 21 -43 0 -10 5 -18 10 -18 6 0 15
-10 20 -22 9 -23 9 -23 9 -1 1 12 -2 23 -6 25 -12 5 -43 67 -43 85 0 8 -11 29
-25 47 -57 71 -88 91 -196 125 -42 13 -59 13 -119 -3z m55 -146 c0 -20 -5 -25
-25 -25 -28 0 -41 32 -18 46 23 15 43 5 43 -21z"/>
<path d="M3068 3465 c-3 -3 -27 -11 -54 -18 -57 -15 -130 -67 -162 -115 -12
-19 -29 -56 -38 -83 -9 -27 -20 -49 -25 -49 -5 0 -9 -8 -9 -17 0 -15 4 -13 20
7 11 14 20 32 20 40 0 14 74 100 85 100 10 0 5 -29 -10 -56 -43 -83 16 -210
117 -254 115 -49 243 20 278 151 13 47 2 92 -36 151 -28 43 -29 48 -10 48 17
0 130 -119 151 -160 29 -56 71 -53 51 3 -12 36 -104 167 -117 167 -4 0 -21 11
-37 25 -41 34 -205 78 -224 60z m-10 -159 c-2 -13 -12 -22 -26 -24 -29 -4 -42
26 -18 44 24 17 48 6 44 -20z"/>
</g>
</svg>
